<svg width="27" height="26" viewBox="0 0 27 26" fill="none" xmlns="http://www.w3.org/2000/svg">
<path d="M13.6105 1.33325C7.16702 1.33325 1.94385 6.55642 1.94385 12.9999C1.94385 19.4434 7.16702 24.6666 13.6105 24.6666C20.054 24.6666 25.2771 19.4434 25.2771 12.9999C25.2771 6.55642 20.054 1.33325 13.6105 1.33325Z" stroke="#0E0E0E" stroke-width="1.5" stroke-linecap="round" stroke-linejoin="round"/>
<path d="M4.59229 20.4037C4.59229 20.4037 7.19279 17.0833 13.6094 17.0833C20.0261 17.0833 22.6277 20.4037 22.6277 20.4037" stroke="#0E0E0E" stroke-width="1.5" stroke-linecap="round" stroke-linejoin="round"/>
<path d="M13.6099 13C14.5382 13 15.4284 12.6313 16.0848 11.9749C16.7412 11.3185 17.1099 10.4283 17.1099 9.5C17.1099 8.57174 16.7412 7.6815 16.0848 7.02513C15.4284 6.36875 14.5382 6 13.6099 6C12.6816 6 11.7914 6.36875 11.135 7.02513C10.4786 7.6815 10.1099 8.57174 10.1099 9.5C10.1099 10.4283 10.4786 11.3185 11.135 11.9749C11.7914 12.6313 12.6816 13 13.6099 13Z" stroke="#0E0E0E" stroke-width="1.5" stroke-linecap="round" stroke-linejoin="round"/>
</svg>
